<svg width="64" height="65" viewBox="0 0 64 65" fill="none" xmlns="http://www.w3.org/2000/svg">
<path d="M5.63456 35.4566V18.0543L2.51328 20.0012V37.3855H2.5152L2.53248 37.4002L5.63456 35.4566Z" fill="#48ACF0"/>
<path d="M11.0688 32.0889V14.6668L7.94944 16.6137V34.023L10.4288 32.4863L11.0688 32.0889Z" fill="#48ACF0"/>
<path d="M16.505 28.7174V11.2793L13.3837 13.2242V30.6534L16.505 28.7174Z" fill="#48ACF0"/>
<path d="M18.8198 9.918V13.8079L32 22.0236V18.1337L18.8198 9.918Z" fill="#48ACF0"/>
<path d="M18.8198 16.693V20.5842L32 28.8006V24.9094L18.8198 16.693Z" fill="#48ACF0"/>
<path d="M18.8198 23.47V27.3612L32 35.5756V31.6844L18.8198 23.47Z" fill="#48ACF0"/>
<path d="M32 22.0057V18.1158L45.3101 9.81816V13.7094L32 22.0057Z" fill="#9BD6FF"/>
<path d="M32 28.7826V24.8914L45.3101 16.5958V20.487L32 28.7826Z" fill="#9BD6FF"/>
<path d="M32 35.5577V31.6678L45.3101 23.3702V27.2614L32 35.5577Z" fill="#9BD6FF"/>
<path d="M45.3101 13.71L61.4867 23.7932V19.902L45.3101 9.81816V13.71Z" fill="#48ACF0"/>
<path d="M45.2614 20.6182L61.5987 30.4383L61.536 26.5471L45.1981 16.727L45.2614 20.6182Z" fill="#48ACF0"/>
<path d="M45.3101 27.262L61.4867 37.3452V33.454L45.3101 23.3708V27.262Z" fill="#48ACF0"/>
<path d="M48.679 32.0633L45.5654 30.1222L32 38.4524V42.3455L48.679 32.0633Z" fill="#48ACF0"/>
<path d="M54.0998 35.4425L50.9862 33.5014L32 45.2332V49.1302L54.0998 35.4425Z" fill="#48ACF0"/>
<path d="M56.4058 36.8799L32 52.021V55.9199L59.625 38.7238L56.4058 36.8799Z" fill="#48ACF0"/>
<path d="M32 42.3314L13.3837 30.6534L16.505 28.7174L32 38.4326V42.3314Z" fill="#9BD6FF"/>
<path d="M32 49.1225L7.94944 34.023L10.4288 32.4863L11.0688 32.0889L32 45.2223V49.1225Z" fill="#9BD6FF"/>
<path d="M32 55.9193L2.5152 37.3887V37.3849L2.53248 37.399L5.63456 35.4559L32 52.0172V55.9193Z" fill="#9BD6FF"/>
</svg>
